<svg width="1080" height="1080" viewBox="0 0 1080 1080" fill="none"
    xmlns="http://www.w3.org/2000/svg">
    <path
        d="M285.673 789.238L284.677 785.252L283.68 772.296L282.684 761.333L279.695 743.394L277.703 734.425L276.706 727.449L274.714 720.472L273.717 715.489L271.725 709.51L267.74 693.564L262.758 681.605L257.777 667.652L253.792 655.693L249.807 647.72L243.829 633.767L235.859 617.822L229.881 606.859L225.896 598.886L220.915 590.913L215.933 579.95C195.676 520.818 190.628 401.358 332.498 396.574C332.498 331.852 423 215.396 538.424 313.597H539.032C654.455 215.396 744.942 331.852 744.942 396.574C886.812 401.358 881.764 520.818 861.507 579.95L856.525 590.913L851.544 598.886L847.559 606.859L841.581 617.822L833.611 633.767L827.633 647.72L823.648 655.693L819.663 667.652L814.682 681.605L809.7 693.564L805.715 709.51L803.722 715.489L802.726 720.472L800.734 727.449L799.737 734.425L797.745 743.394L794.756 761.333L793.76 772.296L792.763 785.252L791.767 789.238L793.307 1079.4H285.673V789.238Z"
        fill="#FF9922" />
</svg>
